<svg width="36" height="36" xmlns="http://www.w3.org/2000/svg" preserveAspectRatio="xMidYMid meet">
 <title>volume-mute-line</title>

 <g>
  <title>background</title>
  <rect fill="none" id="canvas_background" height="402" width="582" y="-1" x="-1"/>
 </g>
 <g>
  <title>Layer 1</title>
  <path fill="#ffffff" id="svg_1" d="m3.61,6.41l5.58,5.59l-5.19,0a2,2 0 0 0 -2,2l0,8a2,2 0 0 0 2,2l5.14,0l7.41,7.47a2,2 0 0 0 1.45,0.53a2,2 0 0 0 0.76,-0.15a2,2 0 0 0 1.24,-1.85l0,-7.23l5.89,5.89c-0.25,0.15 -0.49,0.29 -0.75,0.42a1,1 0 0 0 0.9,1.79a14.4,14.4 0 0 0 1.31,-0.75l2.28,2.28l1.37,-1.4l-26,-26l-1.39,1.41zm14.39,23.59l-7.73,-7.77a1,1 0 0 0 -0.71,-0.23l-5.56,0l0,-8l5.64,0a1,1 0 0 0 0.71,-0.3l0.26,-0.26l7.39,7.37l0,9.19z" class="clr-i-outline clr-i-outline-path-1"/>
  <path fill="#ffffff" id="svg_2" d="m24.89,6.69a12.42,12.42 0 0 1 4.11,19.41l1.42,1.42a14.42,14.42 0 0 0 -4.66,-22.64a1,1 0 1 0 -0.87,1.8l0,0.01z" class="clr-i-outline clr-i-outline-path-2"/>
  <path fill="#ffffff" id="svg_3" d="m22.69,12.62a6.27,6.27 0 0 1 3.11,5.38a6.17,6.17 0 0 1 -1.24,3.71l1.44,1.42a8.15,8.15 0 0 0 1.8,-5.13a8.28,8.28 0 0 0 -4.1,-7.11a1,1 0 1 0 -1,1.73l-0.01,0z" class="clr-i-outline clr-i-outline-path-3"/>
  <path fill="#ffffff" id="svg_4" d="m18,6l0,9.15l2,2l0,-11.15a2,2 0 0 0 -3.42,-1.41l-4.58,4.58l1.41,1.41l4.59,-4.58z" class="clr-i-outline clr-i-outline-path-4"/>
  <rect id="svg_5" fill-opacity="0" height="36" width="36" y="4.113475" x="-64.255318"/>
 </g>
</svg>