<svg width="24" height="24" xmlns="http://www.w3.org/2000/svg">

 <g>
  <title>background</title>
  <rect fill="none" id="canvas_background" height="402" width="582" y="-1" x="-1"/>
 </g>
 <g>
  <title>Layer 1</title>
  <path fill="#ffffff" id="svg_1" d="m11.553,3.064a0.75,0.75 0 0 1 0.447,0.686l0,16.5a0.75,0.75 0 0 1 -1.255,0.555l-5.285,-4.805l-2.71,0a1.75,1.75 0 0 1 -1.75,-1.75l0,-4.5c0,-0.966 0.784,-1.75 1.75,-1.75l2.71,0l5.285,-4.805a0.75,0.75 0 0 1 0.808,-0.13l0,-0.001zm-1.053,2.381l-4.245,3.86a0.75,0.75 0 0 1 -0.505,0.195l-3,0a0.25,0.25 0 0 0 -0.25,0.25l0,4.5c0,0.138 0.112,0.25 0.25,0.25l3,0a0.75,0.75 0 0 1 0.505,0.195l4.245,3.86l0,-13.11z" fill-rule="evenodd"/>
  <path fill="#ffffff" id="svg_2" d="m18.718,4.222a0.75,0.75 0 0 1 1.06,0c4.296,4.296 4.296,11.26 0,15.556a0.75,0.75 0 0 1 -1.06,-1.06a9.5,9.5 0 0 0 0,-13.436a0.75,0.75 0 0 1 0,-1.06z"/>
  <path fill="#ffffff" id="svg_3" d="m16.243,7.757a0.75,0.75 0 1 0 -1.061,1.061a4.5,4.5 0 0 1 0,6.364a0.75,0.75 0 0 0 1.06,1.06a6,6 0 0 0 0,-8.485l0.001,0z"/>
 </g>
</svg>